HIERARCHY
ROOT Hips
{
	OFFSET -278.121490 93.318451 465.951996
	CHANNELS 6 Xposition Yposition Zposition Zrotation Yrotation Xrotation 
	JOINT LeftUpLeg
	{
		OFFSET 0.103457 1.857822 10.548516
		CHANNELS 3 Zrotation Yrotation Xrotation
		JOINT LeftLeg
		{
			OFFSET 43.500008 -0.000031 0.000015
			CHANNELS 3 Zrotation Yrotation Xrotation
			JOINT LeftFoot
			{
				OFFSET 42.372192 0.000027 -0.000009
				CHANNELS 3 Zrotation Yrotation Xrotation
				JOINT LeftToe
				{
					OFFSET 17.299999 0.000000 -0.000004
					CHANNELS 3 Zrotation Yrotation Xrotation
					End Site
					{
						OFFSET 0.000000 0.000000 0.000000
					}
				}
			}
		}
	}
	JOINT RightUpLeg
	{
		OFFSET 0.103460 1.857822 -10.548513
		CHANNELS 3 Zrotation Yrotation Xrotation
		JOINT RightLeg
		{
			OFFSET 43.500038 -0.000015 -0.000002
			CHANNELS 3 Zrotation Yrotation Xrotation
			JOINT RightFoot
			{
				OFFSET 42.372269 -0.000019 0.000014
				CHANNELS 3 Zrotation Yrotation Xrotation
				JOINT RightToe
				{
					OFFSET 17.300005 -0.000001 0.000011
					CHANNELS 3 Zrotation Yrotation Xrotation
					End Site
					{
						OFFSET 0.000000 0.000000 0.000000
					}
				}
			}
		}
	}
	JOINT Spine
	{
		OFFSET 6.901966 -2.603743 -0.000003
		CHANNELS 3 Zrotation Yrotation Xrotation
		JOINT Spine1
		{
			OFFSET 12.588103 0.000012 0.000008
			CHANNELS 3 Zrotation Yrotation Xrotation
			JOINT Spine2
			{
				OFFSET 12.343199 0.000004 0.000007
				CHANNELS 3 Zrotation Yrotation Xrotation
				JOINT Neck
				{
					OFFSET 25.832901 -0.000008 -0.000001
					CHANNELS 3 Zrotation Yrotation Xrotation
					JOINT Head
					{
						OFFSET 11.766611 0.000029 -0.000004
						CHANNELS 3 Zrotation Yrotation Xrotation
						End Site
						{
							OFFSET 0.000000 0.000000 0.000000
						}
					}
				}
				JOINT LeftShoulder
				{
					OFFSET 19.745907 -1.480370 6.000077
					CHANNELS 3 Zrotation Yrotation Xrotation
					JOINT LeftArm
					{
						OFFSET 11.284128 -0.000004 -0.000015
						CHANNELS 3 Zrotation Yrotation Xrotation
						JOINT LeftForeArm
						{
							OFFSET 33.000065 0.000010 0.000016
							CHANNELS 3 Zrotation Yrotation Xrotation
							JOINT LeftHand
							{
								OFFSET 25.200001 0.000010 0.000006
								CHANNELS 3 Zrotation Yrotation Xrotation
								End Site
								{
									OFFSET 0.000000 0.000000 0.000000
								}
							}
						}
					}
				}
				JOINT RightShoulder
				{
					OFFSET 19.746094 -1.480385 -6.000086
					CHANNELS 3 Zrotation Yrotation Xrotation
					JOINT RightArm
					{
						OFFSET 11.284142 -0.000011 -0.000013
						CHANNELS 3 Zrotation Yrotation Xrotation
						JOINT RightForeArm
						{
							OFFSET 33.000092 0.000004 0.000015
							CHANNELS 3 Zrotation Yrotation Xrotation
							JOINT RightHand
							{
								OFFSET 25.199759 0.000141 0.000412
								CHANNELS 3 Zrotation Yrotation Xrotation
								End Site
								{
									OFFSET 0.000000 0.000000 0.000000
								}
							}
						}
					}
				}
			}
		}
	}
}
MOTION
Frames: 14
Frame Time: 0.033333
-232.098602 86.196404 553.438171 72.604139 0.633059 175.463011 132.273266 -21.083496 175.834259 -34.444593 -3.538606 7.186372 78.732253 -8.671431 -13.757491 21.454553 0.003092 0.000001 135.007732 14.318405 -178.630538 -32.422177 -0.399001 -0.516647 76.974169 4.565572 15.003219 21.454557 -0.003108 -0.000018 16.603915 -0.615937 0.301734 23.193787 -1.279817 0.473971 22.875598 -1.276798 0.481709 34.867890 9.928491 3.432900 -33.567870 -11.827640 8.563318 75.926364 -77.387710 103.329369 -62.508115 26.104177 -36.031276 -84.046857 -11.486268 2.847136 -21.982638 -17.538116 39.021178 84.370369 73.575597 -95.342973 -45.480597 -31.524543 25.418687 -90.117939 8.551352 -2.950973 -7.748190 9.291211 -43.863588 
-232.445602 85.778900 553.461670 71.289375 0.526260 175.436032 129.865351 -21.385191 175.711466 -35.928462 -3.532655 7.548092 79.141928 -8.851723 -13.668772 21.454553 0.003092 0.000000 132.472434 14.451601 -178.296911 -34.190096 -0.592325 -0.886157 77.613113 4.779297 15.104550 21.454557 -0.003108 -0.000018 17.065460 -0.684681 0.244067 24.117779 -1.405151 0.340227 23.799579 -1.402937 0.348727 34.308177 9.048227 3.502760 -35.604226 -11.467380 8.909464 76.691249 -76.753219 102.625307 -63.609149 26.878155 -35.407789 -83.660918 -11.922660 2.860963 -20.044283 -16.731534 38.777019 85.225284 72.807699 -94.567862 -49.534861 -32.203198 27.415444 -89.023702 9.606746 -2.976418 -7.387055 9.527345 -46.468987 
-232.671295 85.341904 553.490784 70.069654 0.288948 175.437985 127.639529 -21.573504 175.414749 -37.449955 -3.474483 7.950653 79.518073 -8.995741 -13.313891 21.454548 0.003092 -0.000000 129.981942 14.719099 -178.069616 -36.122244 -0.792129 -1.257934 78.360957 4.971893 15.181391 21.454560 -0.003109 -0.000017 17.574044 -0.744395 0.221417 25.135591 -1.519061 0.276109 24.817381 -1.517233 0.285299 33.526253 8.217079 3.366812 -37.326892 -11.058061 8.944059 76.694193 -76.221093 102.664792 -64.439058 28.011591 -35.403705 -83.768862 -12.498140 2.906515 -18.843322 -12.587103 49.521795 86.274059 72.377281 -93.572588 -53.025361 -32.886302 29.071327 -88.109317 10.587984 -3.004853 -6.022110 9.456743 -48.791747 
-232.814301 84.868057 553.500793 68.721081 -0.197490 175.543949 125.355787 -21.511203 175.154382 -38.995736 -3.482328 8.260884 79.923404 -9.055789 -12.906533 21.454557 0.003092 0.000001 127.189160 15.232696 -177.826844 -38.335519 -1.152781 -1.723982 79.202532 5.199584 15.167702 21.454562 -0.003107 -0.000017 18.040758 -0.822060 0.192987 26.069983 -1.666420 0.196191 25.751741 -1.665072 0.206274 33.209134 7.385995 3.109023 -39.299174 -10.451520 8.697432 78.195885 -75.772111 101.221272 -64.695647 29.252751 -37.284363 -84.864192 -12.787123 2.975615 -17.365870 -4.487294 65.032301 87.742106 71.922493 -92.166716 -55.079837 -34.023238 30.000991 -86.103994 11.777328 -2.999345 -2.920943 10.069381 -45.116265 
-232.877594 84.341873 553.510315 67.396557 -0.760067 175.645022 123.091579 -21.456302 175.076723 -40.702699 -3.644669 8.479164 80.486410 -9.051029 -12.585264 21.454551 0.003092 0.000001 124.331286 15.764406 -177.705458 -40.707596 -1.580518 -2.174215 80.099029 5.389106 15.073782 21.454562 -0.003108 -0.000017 18.554158 -0.913590 0.128413 27.098647 -1.831848 0.039854 26.780359 -1.831441 0.050940 31.947284 6.304982 2.859846 -40.454640 -9.541213 8.236570 78.716229 -75.990506 100.690580 -64.918271 29.973759 -38.715151 -85.091706 -12.504639 2.965619 -11.428109 -2.806237 61.556602 88.520222 71.462405 -91.437546 -56.488496 -35.125194 31.159333 -84.975176 12.627950 -3.009288 -3.507558 8.784843 -47.726029 
-232.842499 83.740509 553.515808 66.175114 -1.175187 175.659051 120.775148 -21.621599 174.952755 -42.805137 -3.692801 8.810670 81.307829 -9.108052 -12.294651 21.454557 0.003092 0.000001 121.604852 16.129504 -177.889873 -43.160467 -1.831652 -2.461306 81.062495 5.452772 14.991630 21.454560 -0.003105 -0.000017 19.063507 -0.966130 0.094458 28.118542 -1.926305 -0.047956 27.800250 -1.926427 -0.036297 31.549286 5.213720 2.508048 -42.100501 -8.924864 7.807530 80.135304 -75.892780 99.299619 -64.186293 30.774797 -39.043865 -85.188858 -12.387684 2.964452 -6.280825 -3.088481 57.739271 91.823103 70.319120 -88.259021 -55.208928 -35.255988 30.199241 -85.222804 12.752287 -3.029229 -3.647051 8.403974 -51.193279 
-232.740005 83.040779 553.536316 65.046214 -1.494937 175.937982 118.368790 -21.656402 175.179531 -45.110500 -3.814843 9.124122 82.225362 -9.138270 -11.985791 21.454551 0.003092 -0.000000 118.943127 16.666000 -178.222721 -45.907023 -1.915907 -2.614868 82.203915 5.392253 14.902771 21.454562 -0.003106 -0.000017 19.606686 -0.916016 0.057316 29.205168 -1.816960 -0.117543 28.886905 -1.817506 -0.106542 30.935938 4.181383 2.032963 -43.838200 -8.278992 7.197458 81.160454 -75.711991 98.303825 -63.473330 31.870544 -39.844383 -85.911103 -12.045144 2.966947 -3.446011 -2.588130 60.195707 94.820798 70.056103 -85.299979 -54.057604 -34.922880 29.352687 -86.279510 12.462731 -3.055984 -2.987822 6.487257 -54.753207 
-232.635498 82.235657 553.573608 63.639263 -1.821416 176.303957 115.529740 -21.610992 175.572868 -47.611422 -3.897624 9.388932 83.213479 -9.133121 -11.682739 21.454553 0.003092 -0.000000 115.874473 17.324490 -178.948839 -48.886427 -1.652560 -2.676367 83.463935 5.245663 14.822733 21.454560 -0.003108 -0.000017 20.054878 -0.827513 -0.011185 30.101641 -1.623848 -0.236326 29.783409 -1.625114 -0.226490 30.481065 3.444845 1.627504 -45.425443 -8.101854 6.887276 81.325724 -75.744612 98.138084 -62.778775 33.576134 -40.901580 -87.130312 -11.270776 2.968612 -3.457209 -2.839727 61.864418 98.702695 69.989898 -81.435922 -52.604058 -34.148169 27.796995 -87.476692 12.043711 -3.079912 -0.592384 2.385390 -60.090495 
-232.643295 81.487831 553.624573 62.004730 -2.152115 176.744013 112.591816 -21.482893 175.184858 -49.735556 -3.447541 9.879591 83.827683 -9.304931 -11.182100 21.454553 0.003092 0.000001 112.688839 18.166794 -179.457114 -51.507843 -1.256894 -2.892353 84.539437 5.224047 14.703398 21.454557 -0.003108 -0.000017 20.387065 -0.749453 -0.118067 30.766502 -1.440923 -0.430238 30.448297 -1.443365 -0.421504 30.747688 2.900758 1.398841 -47.437231 -7.969787 6.797446 79.169754 -76.123585 100.232657 -62.320203 35.794989 -42.864567 -89.593135 -9.700957 2.967093 -0.664488 -0.531762 63.522118 98.660348 71.098089 -81.375290 -52.962673 -34.247935 30.277716 -91.890312 9.076195 -3.067699 15.190009 -6.464505 -75.379190 
-232.866501 80.790916 553.681213 59.943871 -2.578788 177.286986 109.379264 -21.529207 174.678851 -51.398673 -3.465082 10.435610 84.119756 -9.591137 -10.858551 21.454555 0.003092 0.000000 109.049455 19.063401 -179.783625 -53.801929 -1.089929 -3.175621 85.390670 5.306930 14.679613 21.454555 -0.003107 -0.000017 20.385646 -0.688695 -0.264231 30.764367 -1.282917 -0.701259 30.446214 -1.287000 -0.693475 33.184836 2.660218 1.394853 -50.138537 -7.786540 6.906116 72.559388 -77.132117 106.667857 -62.781589 38.214434 -46.671205 -93.902622 -6.059074 2.902476 14.040357 6.103851 73.074097 93.852625 73.626297 -85.937037 -54.954759 -35.500953 34.653098 -97.057869 4.196579 -2.956222 31.254949 -10.434567 -86.568468 
-233.086197 80.168503 553.756592 58.032730 -3.011206 178.046024 106.547058 -21.468709 174.928590 -52.639995 -4.253142 10.715121 84.389924 -9.777713 -11.051959 21.454550 0.003092 -0.000000 105.708051 20.074095 179.637582 -55.865640 -0.814863 -3.330925 86.212430 5.312581 14.723362 21.454558 -0.003109 -0.000018 20.225665 -0.584637 -0.484437 30.444711 -1.022005 -1.105048 30.126622 -1.028529 -1.098834 37.188799 2.110614 1.420690 -53.085596 -7.215048 6.804263 65.593530 -77.354283 113.508660 -62.072022 40.329419 -48.358928 -98.030591 -3.421606 2.901337 25.366587 9.611797 78.791689 87.524489 74.973600 -92.106822 -55.312552 -36.997513 35.763519 -100.324790 2.485546 -2.982660 34.253819 -15.048928 -84.073953 
-233.153198 79.696388 553.802917 56.471949 -3.508242 178.625006 104.419761 -21.198300 174.612557 -53.618095 -4.309466 10.925320 84.715581 -9.940488 -11.311731 21.454551 0.003092 0.000000 102.957281 20.910404 179.207075 -57.518027 -0.780856 -3.569517 86.806766 5.388054 14.632048 21.454562 -0.003106 -0.000017 20.169723 -0.552827 -0.688900 30.333584 -0.906745 -1.498145 30.015553 -0.915644 -1.492620 38.918776 2.081930 1.509755 -54.190902 -6.950015 6.783761 62.155439 -76.594930 116.935598 -59.985126 41.622719 -47.974883 -101.863399 -2.423260 3.001505 24.612305 10.327547 77.994852 84.238151 75.426715 -95.312612 -54.449810 -38.290751 35.359210 -102.999813 1.668947 -3.044806 32.223234 -17.204755 -81.890444 
-233.086197 79.406952 553.887817 55.603354 -3.593923 178.811033 103.115448 -21.238605 174.306141 -54.401705 -4.044859 11.154251 84.801983 -9.997524 -10.843960 21.454557 0.003092 0.000001 101.496147 21.164702 179.395615 -58.537563 -0.971549 -3.772423 87.047025 5.450902 14.343742 21.454560 -0.003107 -0.000017 20.304042 -0.538764 -0.790093 30.602482 -0.850585 -1.694076 30.284495 -0.860668 -1.688887 39.145692 2.119806 1.765020 -54.165934 -6.671052 6.851434 59.115793 -76.016905 119.951728 -58.245797 42.833281 -47.737001 -105.750016 -1.609666 3.115789 16.862132 9.111301 76.869169 81.744291 75.061395 -97.804341 -53.041583 -39.534013 34.982064 -107.179902 0.550170 -3.151558 29.168193 -12.815244 -78.761923 
-232.957306 79.345001 553.939819 54.952898 -3.598465 178.862055 102.343042 -21.179990 174.158937 -54.708709 -3.745292 11.204898 84.760626 -9.939901 -10.351721 21.454551 0.003092 0.000001 100.689085 21.252506 179.591273 -58.930196 -1.023737 -3.876154 86.989358 5.475088 14.037423 21.454560 -0.003107 -0.000018 20.414742 -0.520166 -0.803732 30.823592 -0.808695 -1.716530 30.505609 -0.818914 -1.711593 39.142807 2.552288 2.173515 -54.020086 -6.755918 7.295751 56.445363 -76.172401 122.560068 -57.453174 44.061704 -47.398979 -109.973894 -0.736408 3.238539 8.143938 5.357581 76.488126 80.237681 74.908829 -99.302099 -52.053418 -40.648624 35.023366 -110.980499 -0.288499 -3.258931 22.865482 -6.939459 -76.824028 
